<?xml version="1.0" ?>
    <svg xmlns="http://www.w3.org/2000/svg" width="800px" height="800px" viewBox="0 0 24 24" fill="none">
    
    <path d="M15.8501 9.0218C16.2406 9.41233 16.8738 9.41233 17.2643 9.0218C17.6548 8.63128 17.6548 7.99811 17.2643 7.60759C16.8738 7.21707 16.2406 7.21707 15.8501 7.60759C15.4596 7.99811 15.4596 8.63128 15.8501 9.0218Z" fill="#bbbbbbb"/>
    <path fill-rule="evenodd" clip-rule="evenodd" d="M20.5189 5.44664C20.2563 4.993 19.8794 4.6161 19.4258 4.35347L16.7387 2.79783C15.5625 2.11685 14.0754 2.31173 13.1143 3.27279L10.1019 6.28522C9.14082 7.24629 8.94594 8.7334 9.62693 9.90965L10.0278 10.602L4.82993 15.7998C4.45486 16.1749 4.24414 16.6836 4.24414 17.214L4.24414 18.6283C4.24414 19.7328 5.13957 20.6283 6.24414 20.6283H7.65835C8.18879 20.6283 8.6975 20.4175 9.07257 20.0425L14.2704 14.8446L14.9627 15.2455C16.139 15.9264 17.6261 15.7316 18.5872 14.7705L21.5996 11.7581C22.5607 10.797 22.7555 9.30989 22.0746 8.13365L20.5189 5.44664ZM18.4237 6.08432C18.5749 6.17186 18.7005 6.2975 18.7881 6.44871L20.3437 9.13572C20.5707 9.5278 20.5057 10.0235 20.1854 10.3439L17.173 13.3563C16.8526 13.6766 16.3569 13.7416 15.9648 13.5146L13.9427 12.3439L7.65836 18.6283L6.24414 18.6282L6.24414 17.214L12.5285 10.9297L11.3578 8.90758C11.1308 8.5155 11.1957 8.01979 11.5161 7.69944L14.5285 4.68701C14.8489 4.36665 15.3446 4.30169 15.7367 4.52869L18.4237 6.08432Z" fill="#bbbbbb"/>
    
    </svg>